<svg role="img" viewBox="0 0 24 24" xmlns="http://www.w3.org/2000/svg">
    <path d="M12.04 2.016c-5.49 0-9.96 4.47-9.96 9.96 0 1.77.46 3.48 1.31 4.94l-1.35 4.92 5.04-1.32c1.41.83 3.02 1.28 4.68 1.28h.01c5.49 0 9.96-4.47 9.96-9.96s-4.47-9.96-9.96-9.96zM12.04 20.16c-1.48 0-2.92-.4-4.2-1.15l-.3-.18-3.12.82.83-3.04-.2-.32a8.21 8.21 0 0 1-1.26-4.38c0-4.53 3.68-8.21 8.21-8.21 2.21 0 4.29.86 5.81 2.38 1.52 1.52 2.38 3.6 2.38 5.81-.01 4.54-3.69 8.21-8.22 8.21zm4.52-6.13c-.25-.12-1.47-.72-1.7-.81-.22-.08-.39-.12-.55.12-.17.25-.64.81-.79.97-.15.17-.29.19-.55.06-.25-.12-1.07-.39-2.04-1.26-.75-.66-1.26-1.47-1.41-1.72-.15-.25-.02-.38.11-.5.12-.11.25-.29.38-.43.12-.15.17-.25.25-.41.08-.17.04-.31-.02-.43-.06-.12-.55-1.32-.76-1.81-.2-.48-.4-.42-.55-.42h-.52c-.17 0-.43.06-.66.31-.22.25-.86.85-.86 2.07 0 1.22.88 2.4 1 2.56.12.17 1.76 2.68 4.27 3.75 2.51 1.06 2.51.71 2.96.68.45-.02 1.47-.6 1.68-1.18.2-.58.2-1.08.14-1.18-.05-.12-.2-.19-.44-.31z" fill="white"/>
</svg>